<svg id="a6b6155e-10ce-4b21-9902-fdcb66073108" data-name="e3a06961-b069-492a-9acd-30286cb2523c" xmlns="http://www.w3.org/2000/svg" width="187.89" height="87.29" viewBox="0 0 187.89 87.29"><polygon points="0 74.5 0 58.8 19.55 58.8 19.55 62.52 5.38 62.52 5.38 64.39 19.55 64.39 19.55 67.95 5.38 67.95 5.38 70.77 19.55 70.77 19.55 74.5 0 74.5" fill="#eead1f"/><polygon points="22.09 74.5 22.09 58.8 27.47 58.8 27.47 70.42 41.47 70.42 41.47 74.5 22.09 74.5" fill="#eead1f"/><polygon points="43.24 74.5 43.24 58.8 62.79 58.8 62.79 62.52 48.63 62.52 48.63 64.39 62.79 64.39 62.79 67.95 48.63 67.95 48.63 70.77 62.79 70.77 62.79 74.5 43.24 74.5" fill="#eead1f"/><polygon points="80.59 74.61 74.75 74.61 64.26 58.8 70.97 58.8 77.68 69.84 84.41 58.8 91.08 58.8 80.59 74.61" fill="#eead1f"/><path d="M105.71,74.5,104.22,72H93.81l-1.52,2.5H85.7L96.32,58.68h5.5l10.6,15.82ZM99,63.2l-3,5.1h6.08Z" fill="#eead1f"/><polygon points="122.04 62.87 122.04 74.5 116.69 74.5 116.69 62.87 108.11 62.87 108.11 58.8 130.64 58.8 130.64 62.87 122.04 62.87" fill="#eead1f"/><rect x="132.32" y="58.8" width="5.38" height="15.7" fill="#eead1f"/><path d="M151.66,74.92c-5.73,0-11.88-2.24-11.88-8.27s6.1-8.27,11.88-8.27,11.9,2.26,11.9,8.27-6,8.27-11.9,8.27m0-12.79c-3.92,0-6.18,1.72-6.18,4.52s2.26,4.52,6.18,4.52,6.19-1.7,6.19-4.52-2.26-4.52-6.19-4.52" fill="#eead1f"/><polygon points="187.89 74.82 187.21 74.82 170.95 66.39 170.95 74.5 165.57 74.5 165.57 58.47 166.25 58.47 182.51 66.83 182.51 58.8 187.89 58.8 187.89 74.82" fill="#eead1f"/><path d="M19,87.06l-1-1.53H12l-1,1.53H8.11l5.73-8.67h2.37l5.73,8.67Zm-4-6.52-2,3.18h3.89Z" fill="#fff"/><polygon points="35.76 80.38 35.76 87.06 33.37 87.06 33.37 80.38 28.58 80.38 28.58 78.47 40.55 78.47 40.55 80.38 35.76 80.38" fill="#fff"/><polygon points="59.47 87.06 59.47 83.33 52.88 83.33 52.88 87.06 50.48 87.06 50.48 78.47 52.88 78.47 52.88 81.45 59.47 81.45 59.47 78.47 61.86 78.47 61.86 87.06 59.47 87.06" fill="#fff"/><polygon points="72.47 87.06 72.47 78.47 74.86 78.47 74.86 85.14 82.65 85.14 82.65 87.06 72.47 87.06" fill="#fff"/><polygon points="92.7 87.06 92.7 78.47 102.94 78.47 102.94 80.29 95.09 80.29 95.09 81.58 102.94 81.58 102.94 83.32 95.09 83.32 95.09 85.23 102.94 85.23 102.94 87.06 92.7 87.06" fill="#fff"/><polygon points="119.96 80.38 119.96 87.06 117.58 87.06 117.58 80.38 112.79 80.38 112.79 78.47 124.75 78.47 124.75 80.38 119.96 80.38" fill="#fff"/><rect x="134.72" y="78.47" width="2.4" height="8.59" fill="#fff"/><path d="M153.75,87.28c-3.27,0-6.41-1.22-6.41-4.52,0-3.52,3.68-4.52,6.41-4.52a11.9,11.9,0,0,1,5.13,1L158.4,81a11.11,11.11,0,0,0-4.44-.92c-2.62,0-4.13,1-4.13,2.65s1.58,2.63,4.13,2.64a11.17,11.17,0,0,0,4.45-.9l.48,1.79a12.6,12.6,0,0,1-5.14,1" fill="#fff"/><path d="M173.86,87.28a15.64,15.64,0,0,1-5.13-.71l.52-1.81a14,14,0,0,0,4.62.73c2.34,0,3.28-.33,3.28-.92s-.84-.74-3.15-.92c-3.48-.27-5.24-.81-5.24-2.72s2.13-2.69,5.73-2.69a13.77,13.77,0,0,1,4.81.67l-.51,1.81a12,12,0,0,0-4.32-.69c-2.07,0-3.23.21-3.23.73s.71.7,2.89.87c3.53.25,5.45.65,5.45,2.65,0,2.2-2.32,3-5.72,3" fill="#fff"/><path d="M119.41,44.17l-15.57-27-15.57,27h0l-.91,1.58h5.92l.94-1.58h25.19Zm-15.59-16.5,6.5,11.25h-13Z" fill="#fff"/><polygon points="77.49 38.92 83.99 27.67 89.38 37.01 92.41 31.76 87.02 22.42 93.91 10.5 99.3 19.84 102.33 14.59 93.91 0 83.99 17.17 68.4 44.17 85.24 44.17 88.28 38.92 77.49 38.92" fill="#fff"/></svg>