<svg id="bc92e7b5-6eb4-4daf-a3c6-91d02e734366" data-name="Layer 1" xmlns="http://www.w3.org/2000/svg" width="187.89" height="28.91" viewBox="0 0 187.89 28.91"><polygon points="0 16.12 0 0.42 19.55 0.42 19.55 4.15 5.38 4.15 5.38 6.01 19.55 6.01 19.55 9.57 5.38 9.57 5.38 12.39 19.55 12.39 19.55 16.12 0 16.12" fill="#eead1f"/><polygon points="22.09 16.12 22.09 0.42 27.47 0.42 27.47 12.04 41.47 12.04 41.47 16.12 22.09 16.12" fill="#eead1f"/><polygon points="43.24 16.12 43.24 0.42 62.79 0.42 62.79 4.15 48.63 4.15 48.63 6.01 62.79 6.01 62.79 9.57 48.63 9.57 48.63 12.39 62.79 12.39 62.79 16.12 43.24 16.12" fill="#eead1f"/><polygon points="80.59 16.24 74.75 16.24 64.26 0.42 70.97 0.42 77.68 11.46 84.41 0.42 91.08 0.42 80.59 16.24" fill="#eead1f"/><path d="M105.71,16.12l-1.49-2.49H93.81l-1.52,2.49H85.7L96.32.3h5.5l10.6,15.82ZM99,4.82l-3,5.1h6.08Z" fill="#eead1f"/><polygon points="122.04 4.5 122.04 16.12 116.69 16.12 116.69 4.5 108.11 4.5 108.11 0.42 130.64 0.42 130.64 4.5 122.04 4.5" fill="#eead1f"/><rect x="132.32" y="0.42" width="5.38" height="15.7" fill="#eead1f"/><path d="M151.66,16.54c-5.73,0-11.88-2.24-11.88-8.27S145.88,0,151.66,0s11.9,2.26,11.9,8.27-6,8.27-11.9,8.27m0-12.79c-3.92,0-6.18,1.73-6.18,4.52s2.26,4.52,6.18,4.52,6.19-1.7,6.19-4.52-2.26-4.52-6.19-4.52" fill="#eead1f"/><polygon points="187.89 16.45 187.21 16.45 170.95 8.01 170.95 16.12 165.57 16.12 165.57 0.09 166.25 0.09 182.51 8.46 182.51 0.42 187.89 0.42 187.89 16.45" fill="#eead1f"/><path d="M19,28.68,18,27.15H12l-1,1.53H8.11L13.84,20h2.37l5.73,8.67ZM15,22.17l-2,3.17h3.89Z" fill="#442e74"/><polygon points="35.76 22 35.76 28.68 33.37 28.68 33.37 22 28.58 22 28.58 20.09 40.55 20.09 40.55 22 35.76 22" fill="#442e74"/><polygon points="59.47 28.68 59.47 24.96 52.88 24.96 52.88 28.68 50.48 28.68 50.48 20.09 52.88 20.09 52.88 23.07 59.47 23.07 59.47 20.09 61.86 20.09 61.86 28.68 59.47 28.68" fill="#442e74"/><polygon points="72.47 28.68 72.47 20.09 74.86 20.09 74.86 26.77 82.65 26.77 82.65 28.68 72.47 28.68" fill="#442e74"/><polygon points="92.7 28.68 92.7 20.09 102.94 20.09 102.94 21.91 95.09 21.91 95.09 23.2 102.94 23.2 102.94 24.95 95.09 24.95 95.09 26.86 102.94 26.86 102.94 28.68 92.7 28.68" fill="#442e74"/><polygon points="119.96 22 119.96 28.68 117.58 28.68 117.58 22 112.79 22 112.79 20.09 124.75 20.09 124.75 22 119.96 22" fill="#442e74"/><rect x="134.72" y="20.09" width="2.4" height="8.59" fill="#442e74"/><path d="M153.75,28.91c-3.27,0-6.41-1.22-6.41-4.53,0-3.51,3.68-4.52,6.41-4.52a12,12,0,0,1,5.13,1l-.48,1.82a11.1,11.1,0,0,0-4.44-.91c-2.62,0-4.13,1-4.13,2.65S151.41,27,154,27a11.16,11.16,0,0,0,4.45-.91l.48,1.8a12.7,12.7,0,0,1-5.14,1" fill="#442e74"/><path d="M173.86,28.91a15.69,15.69,0,0,1-5.13-.72l.52-1.8a14.09,14.09,0,0,0,4.62.72c2.34,0,3.28-.33,3.28-.92s-.84-.74-3.15-.91c-3.48-.27-5.24-.82-5.24-2.73s2.13-2.69,5.73-2.69a13.8,13.8,0,0,1,4.81.68l-.51,1.81a11.69,11.69,0,0,0-4.32-.69c-2.07,0-3.23.2-3.23.72s.71.7,2.89.87c3.53.26,5.45.65,5.45,2.65,0,2.21-2.32,3-5.72,3" fill="#442e74"/></svg>