<?xml version="1.0" encoding="utf-8"?>
<!-- Generator: Adobe Illustrator 26.0.3, SVG Export Plug-In . SVG Version: 6.00 Build 0)  -->
<svg version="1.1" id="Layer_1" xmlns="http://www.w3.org/2000/svg" xmlns:xlink="http://www.w3.org/1999/xlink" x="0px" y="0px"
	 viewBox="0 0 877.4 803.3" style="enable-background:new 0 0 877.4 803.3;" xml:space="preserve">
<style type="text/css">
	.st0{fill:#442E74;}
</style>
<g id="b35f3f00-e40c-4112-a104-7d91390761fd">
	<path class="st0" d="M27.7,336.5L0,252.7h24.4l15.9,54.4l15.8-54.4h22.3l-27.7,83.8v62.1H27.7V336.5z"/>
	<path class="st0" d="M78.3,364v-76.7c0-23.4,12.3-36.7,34.8-36.7s34.8,13.3,34.8,36.7V364c0,23.3-12.3,36.7-34.8,36.7
		S78.3,387.4,78.3,364z M125,365.5v-79.6c0-10.4-4.6-14.4-11.9-14.4s-11.9,4-11.9,14.4v79.6c0,10.4,4.6,14.4,11.9,14.4
		S125,375.9,125,365.5z"/>
	<path class="st0" d="M154.6,364V252.7h22.9v113c0,10.4,4.4,14.2,11.7,14.2s11.7-3.8,11.7-14.2v-113H223V364
		c0,23.3-11.7,36.7-34.2,36.7S154.6,387.4,154.6,364z"/>
	<path class="st0" d="M231,252.7h34c23.8,0,34,11,34,33.6v9c0,15-4.8,24.6-15,28.8v0.4c11.5,3.5,15.2,14.4,15.2,30.9v25.6
		c0,7.1,0.2,12.3,2.5,17.7h-23.5c-1.2-3.8-2.1-6-2.1-17.9V354c0-13.5-4-17.9-14.4-17.9h-7.9v62.5H231V252.7z M262.3,315.2
		c8.5,0,13.8-3.8,13.8-15.4v-11.3c0-10.4-3.5-15-11.7-15h-10.5v41.7L262.3,315.2z"/>
	<path class="st0" d="M327.7,364v-8.3h21.7v10c0,10.4,4.6,14.2,11.9,14.2s12.1-3.8,12.1-14.6c0-12.1-5-19.6-20-32.7
		c-19.2-16.9-25.6-29-25.6-45.6c0-22.9,11.9-36.3,34.2-36.3s33.4,13.3,33.4,36.7v6h-21.7v-7.5c0-10.4-4.2-14.4-11.5-14.4
		s-11.7,4-11.7,14c0,10.6,5.2,18.1,20.2,31.3c19.2,16.9,25.4,28.8,25.4,46.9c0,23.8-12.1,37.1-34.6,37.1S327.7,387.4,327.7,364z"/>
	<path class="st0" d="M401.9,252.7h33.8c22.9,0,34.2,12.7,34.2,36.1v14.4c0,23.4-11.3,36.1-34.2,36.1h-10.8v59.4h-22.9V252.7z
		 M435.6,318.4c7.3,0,11.3-3.3,11.3-13.8v-17.3c0-10.4-4-13.8-11.3-13.8h-10.8v44.9H435.6z"/>
	<path class="st0" d="M474.6,364v-76.7c0-23.4,12.3-36.7,34.8-36.7s34.8,13.3,34.8,36.7V364c0,23.3-12.3,36.7-34.8,36.7
		S474.6,387.4,474.6,364z M521.3,365.5v-79.6c0-10.4-4.6-14.4-11.9-14.4s-11.9,4-11.9,14.4v79.6c0,10.4,4.6,14.4,11.9,14.4
		C516.7,379.9,521.3,375.9,521.3,365.5z"/>
	<path class="st0" d="M551.6,252.7h34c23.8,0,34,11,34,33.6v9c0,15-4.8,24.6-15,28.8v0.4c11.5,3.5,15.2,14.4,15.2,30.9v25.6
		c0,7.1,0.2,12.3,2.5,17.7h-23.4c-1.2-3.8-2.1-6-2.1-17.9V354c0-13.5-4-17.9-14.4-17.9h-7.9v62.5h-22.9V252.7z M582.8,315.2
		c8.5,0,13.8-3.8,13.8-15.4v-11.3c0-10.4-3.5-15-11.7-15h-10.4v41.7L582.8,315.2z"/>
	<path class="st0" d="M647.5,273.5h-24v-20.8h70.9v20.8h-24v125.1h-22.9V273.5z"/>
</g>
<path class="st0" d="M206.3,39.2h-41V3.6h121.3v35.7h-41v214.1h-39.3V39.2z"/>
<path class="st0" d="M359.9,204.4h-45.3l-6.8,48.9h-36.4L312.1,3.6h53.2l40.7,249.7h-39.2L359.9,204.4z M354.9,170.5L337,44.6
	l-17.5,125.9L354.9,170.5z"/>
<path class="st0" d="M469.5,143.4l-16.1,31.4v78.5h-39.2V3.6h39.2V111L502.7,3.6h40l-46.8,91.7l47.4,158h-41L469.5,143.4z"/>
<path class="st0" d="M551.6,3.6h39.2v249.7h-39.2V3.6z"/>
<path class="st0" d="M605,3.6h48.5l39.6,149.5V3.6h35v249.7h-39.6L640,71v182.3h-35V3.6z"/>
<path class="st0" d="M740.7,194.1V62.8c0-40,20-62.8,58.5-62.8s58.5,22.8,58.5,62.8v21.4h-37.1V60.3c0-17.8-7.8-24.6-20.3-24.6
	S780,42.5,780,60.3v136.6c0,17.8,7.8,24.3,20.3,24.3s20.3-6.4,20.3-24.3v-48.9H801v-35.7h56.7v81.7c0,40-20,62.8-58.5,62.8
	S740.7,234.1,740.7,194.1z"/>
<path class="st0" d="M445.4,415.4h-24v-20.8h70.9v20.8h-24v125.1h-22.9V415.4z"/>
<path class="st0" d="M496,505.9v-76.7c0-23.4,12.3-36.7,34.8-36.7s34.8,13.3,34.8,36.7v76.7c0,23.3-12.3,36.7-34.8,36.7
	S496,529.2,496,505.9z M542.7,507.4v-79.6c0-10.4-4.6-14.4-11.9-14.4s-11.9,4-11.9,14.4v79.6c0,10.4,4.6,14.4,11.9,14.4
	S542.7,517.8,542.7,507.4L542.7,507.4z"/>
<path class="st0" d="M597.7,394.6h28.4l23.1,87.4v-87.4h20.4v145.9h-23.1L618.2,434v106.5h-20.4V394.6z"/>
<path class="st0" d="M678,394.6h62.5v20.8H701V454h31.5v20.9H701v44.8h39.6v20.8H678V394.6z"/>
<path class="st0" d="M743.6,394.6h22.1l10.4,114.2l11-114.2h25l11,114.2l10.4-114.2h19.8l-14.8,145.9h-28.5l-10.6-100.3l-10.6,100.3
	h-30.4L743.6,394.6z"/>
<path class="st0" d="M29.9,536.2h41.4v107.2h44.4V536.2H157v263.3h-41.4V681H71.2v118.5H29.9V536.2z"/>
<path class="st0" d="M172.1,536.2H285v37.6h-71.5v69.6h56.8V681h-56.8v80.9H285v37.6H172.1V536.2z"/>
<path class="st0" d="M294.9,536.2h41.4v263.3h-41.4V536.2z"/>
<path class="st0" d="M349.5,737.1V598.6c0-42.1,21.1-66.2,61.7-66.2s61.7,24.1,61.7,66.2v22.6h-39.1V596c0-18.8-8.3-26-21.4-26
	s-21.4,7.2-21.4,26v144.1c0,18.8,8.3,25.6,21.4,25.6s21.4-6.8,21.4-25.6v-51.5H413v-37.6h59.8v86.2c0,42.1-21.1,66.2-61.7,66.2
	S349.5,779.2,349.5,737.1z"/>
<path class="st0" d="M485.3,536.2h41.4v107.2H571V536.2h41.4v263.3H571V681h-44.4v118.5h-41.4V536.2z"/>
<path class="st0" d="M664.5,573.8h-43.2v-37.6h127.9v37.6h-43.2v225.7h-41.4V573.8z"/>
<path class="st0" d="M754.1,737.1v-15h39.1v18c0,18.8,8.3,25.6,21.4,25.6s21.8-6.8,21.8-26.3c0-21.8-9-35.4-36.1-59
	c-34.6-30.5-46.3-52.3-46.3-82.4c0-41.4,21.4-65.4,61.7-65.4s60.2,24.1,60.2,66.2v10.9h-39.1V596c0-18.8-7.5-26-20.7-26
	s-21.1,7.2-21.1,25.2c0,19.2,9.4,32.7,36.5,56.4c34.6,30.5,45.9,51.9,45.9,84.6c0,42.9-21.8,66.9-62.4,66.9S754.1,779.2,754.1,737.1
	z"/>
</svg>
