<?xml version="1.0" encoding="utf-8"?>
<!-- Generator: Adobe Illustrator 26.0.3, SVG Export Plug-In . SVG Version: 6.00 Build 0)  -->
<svg version="1.1" id="Layer_1" xmlns="http://www.w3.org/2000/svg" xmlns:xlink="http://www.w3.org/1999/xlink" x="0px" y="0px"
	 viewBox="0 0 877.4 799.7" style="enable-background:new 0 0 877.4 799.7;" xml:space="preserve">
<style type="text/css">
	.st0{fill:#442E74;}
</style>
<g id="b35f3f00-e40c-4112-a104-7d91390761fd">
	<path class="st0" d="M27.7,332.9L0,249.1h24.4l15.9,54.4l15.8-54.4h22.3l-27.7,83.8v62.1H27.7V332.9z"/>
	<path class="st0" d="M78.3,360.5v-76.7c0-23.4,12.3-36.7,34.8-36.7s34.8,13.3,34.8,36.7v76.7c0,23.3-12.3,36.7-34.8,36.7
		S78.3,383.8,78.3,360.5z M125,361.9v-79.6c0-10.4-4.6-14.4-11.9-14.4s-11.9,4-11.9,14.4v79.6c0,10.4,4.6,14.4,11.9,14.4
		S125,372.3,125,361.9z"/>
	<path class="st0" d="M154.6,360.5V249.1h22.9v113c0,10.4,4.4,14.2,11.7,14.2s11.7-3.8,11.7-14.2v-113H223v111.3
		c0,23.3-11.7,36.7-34.2,36.7S154.6,383.8,154.6,360.5z"/>
	<path class="st0" d="M231,249.1h34c23.8,0,34,11,34,33.6v9c0,15-4.8,24.6-15,28.8v0.4c11.5,3.5,15.2,14.4,15.2,30.9v25.6
		c0,7.1,0.2,12.3,2.5,17.7h-23.5c-1.2-3.8-2.1-6-2.1-17.9v-26.7c0-13.5-4-17.9-14.4-17.9h-7.9v62.5H231V249.1z M262.3,311.7
		c8.5,0,13.8-3.8,13.8-15.4V285c0-10.4-3.5-15-11.7-15h-10.5v41.7L262.3,311.7z"/>
	<path class="st0" d="M327.7,360.5v-8.3h21.7v10c0,10.4,4.6,14.2,11.9,14.2s12.1-3.8,12.1-14.6c0-12.1-5-19.6-20-32.7
		c-19.2-16.9-25.6-29-25.6-45.6c0-22.9,11.9-36.3,34.2-36.3s33.4,13.3,33.4,36.7v6h-21.7v-7.5c0-10.4-4.2-14.4-11.5-14.4
		s-11.7,4-11.7,14c0,10.6,5.2,18.1,20.2,31.3c19.2,16.9,25.4,28.8,25.4,46.9c0,23.8-12.1,37.1-34.6,37.1S327.7,383.8,327.7,360.5z"
		/>
	<path class="st0" d="M401.9,249.1h33.8c22.9,0,34.2,12.7,34.2,36.1v14.4c0,23.4-11.3,36.1-34.2,36.1h-10.8v59.4h-22.9V249.1z
		 M435.6,314.8c7.3,0,11.3-3.3,11.3-13.8v-17.3c0-10.4-4-13.8-11.3-13.8h-10.8v44.9H435.6z"/>
	<path class="st0" d="M474.6,360.5v-76.7c0-23.4,12.3-36.7,34.8-36.7s34.8,13.3,34.8,36.7v76.7c0,23.3-12.3,36.7-34.8,36.7
		S474.6,383.8,474.6,360.5z M521.3,361.9v-79.6c0-10.4-4.6-14.4-11.9-14.4s-11.9,4-11.9,14.4v79.6c0,10.4,4.6,14.4,11.9,14.4
		C516.7,376.3,521.3,372.3,521.3,361.9z"/>
	<path class="st0" d="M551.6,249.1h34c23.8,0,34,11,34,33.6v9c0,15-4.8,24.6-15,28.8v0.4c11.5,3.5,15.2,14.4,15.2,30.9v25.6
		c0,7.1,0.2,12.3,2.5,17.7h-23.4c-1.2-3.8-2.1-6-2.1-17.9v-26.7c0-13.5-4-17.9-14.4-17.9h-7.9v62.5h-22.9V249.1z M582.8,311.7
		c8.5,0,13.8-3.8,13.8-15.4V285c0-10.4-3.5-15-11.7-15h-10.4v41.7L582.8,311.7z"/>
	<path class="st0" d="M647.5,270h-24v-20.8h70.9V270h-24v125.1h-22.9V270z"/>
</g>
<path class="st0" d="M327.6,35.7h-41V0h121.3v35.7h-41v214.1h-39.3V35.7z"/>
<path class="st0" d="M481.2,200.9h-45.3l-6.8,48.9h-36.4L433.4,0h53.2l40.7,249.7h-39.2L481.2,200.9z M476.2,167L458.3,41L440.8,167
	L476.2,167z"/>
<path class="st0" d="M590.8,139.9l-16.1,31.4v78.5h-39.2V0h39.2v107.4L624,0h40l-46.8,91.7l47.5,158h-41L590.8,139.9z"/>
<path class="st0" d="M445.4,411.8h-24V391h70.9v20.8h-24v125.1h-22.9V411.8z"/>
<path class="st0" d="M496,502.3v-76.7c0-23.4,12.3-36.7,34.8-36.7s34.8,13.3,34.8,36.7v76.7c0,23.3-12.3,36.7-34.8,36.7
	S496,525.7,496,502.3z M542.7,503.8v-79.6c0-10.4-4.6-14.4-11.9-14.4s-11.9,4-11.9,14.4v79.6c0,10.4,4.6,14.4,11.9,14.4
	S542.7,514.2,542.7,503.8L542.7,503.8z"/>
<path class="st0" d="M597.7,391h28.4l23.1,87.4V391h20.4v145.9h-23.1l-28.3-106.5v106.5h-20.4V391z"/>
<path class="st0" d="M678,391h62.5v20.8H701v38.6h31.5v20.9H701v44.8h39.6v20.8H678V391z"/>
<path class="st0" d="M743.6,391h22.1l10.4,114.2l11-114.2h25l11,114.2L833.6,391h19.8l-14.8,145.9h-28.5l-10.6-100.3l-10.6,100.3
	h-30.4L743.6,391z"/>
<path class="st0" d="M29.9,532.6h41.4v107.2h44.4V532.6H157v263.3h-41.4V677.4H71.2v118.5H29.9V532.6z"/>
<path class="st0" d="M172.1,532.6H285v37.6h-71.5v69.6h56.8v37.6h-56.8v80.9H285v37.6H172.1V532.6z"/>
<path class="st0" d="M672.9,0h106.8v35.6H712v65.8h53.7V137H712v76.5h67.7v35.6H672.9V0z"/>
<path class="st0" d="M294.9,532.6h41.4v263.3h-41.4V532.6z"/>
<path class="st0" d="M349.5,733.5V595.1c0-42.1,21.1-66.2,61.7-66.2s61.7,24.1,61.7,66.2v22.6h-39.1v-25.2c0-18.8-8.3-26-21.4-26
	s-21.4,7.2-21.4,26v144.1c0,18.8,8.3,25.6,21.4,25.6s21.4-6.8,21.4-25.6V685H413v-37.6h59.8v86.2c0,42.1-21.1,66.2-61.7,66.2
	S349.5,775.6,349.5,733.5z"/>
<path class="st0" d="M485.3,532.6h41.4v107.2H571V532.6h41.4v263.3H571V677.4h-44.4v118.5h-41.4V532.6z"/>
<path class="st0" d="M664.5,570.2h-43.2v-37.6h127.9v37.6h-43.2v225.7h-41.4V570.2z"/>
<path class="st0" d="M754.1,733.5v-15h39.1v18c0,18.8,8.3,25.6,21.4,25.6s21.8-6.8,21.8-26.3c0-21.8-9-35.4-36.1-59
	c-34.6-30.5-46.3-52.3-46.3-82.4c0-41.4,21.4-65.4,61.7-65.4s60.2,24.1,60.2,66.2V606h-39.1v-13.6c0-18.8-7.5-26-20.7-26
	s-21.1,7.2-21.1,25.2c0,19.2,9.4,32.7,36.5,56.4c34.6,30.5,45.9,51.9,45.9,84.6c0,42.9-21.8,66.9-62.4,66.9S754.1,775.6,754.1,733.5
	z"/>
</svg>
