<svg xmlns="http://www.w3.org/2000/svg" width="877.42" height="835.17" viewBox="0 0 877.42 835.17"><g id="b35f3f00-e40c-4112-a104-7d91390761fd" data-name="Layer 1"><path d="M27.73,346.1,0,262.29H24.39L40.24,316.7l15.84-54.41H78.39L50.66,346.1v62.12H27.73Z" fill="#442e74"/><path d="M78.3,373.62V296.89c0-23.35,12.3-36.69,34.82-36.69s34.82,13.34,34.82,36.69v76.73c0,23.34-12.3,36.69-34.82,36.69S78.3,397,78.3,373.62Zm46.7,1.45V295.43c0-10.42-4.58-14.38-11.88-14.38s-11.88,4-11.88,14.38v79.64c0,10.43,4.58,14.39,11.88,14.39S125,385.5,125,375.07Z" fill="#442e74"/><path d="M154.65,373.62V262.29h22.93v113c0,10.43,4.38,14.18,11.68,14.18s11.67-3.75,11.67-14.18v-113H223V373.62c0,23.34-11.68,36.69-34.19,36.69S154.65,397,154.65,373.62Z" fill="#442e74"/><path d="M231,262.29h34c23.77,0,34,11,34,33.56v9c0,15-4.79,24.6-15,28.77V334c11.47,3.55,15.22,14.39,15.22,30.86V390.5c0,7.09.21,12.3,2.5,17.72H278.27c-1.25-3.75-2.08-6-2.08-17.93V363.61c0-13.55-4-17.93-14.39-17.93h-7.92v62.54H231Zm31.27,62.54c8.55,0,13.76-3.75,13.76-15.43V298.14c0-10.42-3.54-15-11.67-15H253.88v41.7Z" fill="#442e74"/><path d="M327.68,373.62v-8.34h21.68v10c0,10.43,4.59,14.18,11.89,14.18s12.09-3.75,12.09-14.59c0-12.1-5-19.6-20-32.74-19.19-16.88-25.65-29-25.65-45.65,0-22.94,11.89-36.28,34.19-36.28s33.36,13.34,33.36,36.69v6.05H373.55v-7.51c0-10.42-4.17-14.38-11.47-14.38s-11.67,4-11.67,14c0,10.63,5.21,18.14,20.22,31.27,19.18,16.89,25.43,28.77,25.43,46.91,0,23.76-12.09,37.11-34.6,37.11S327.68,397,327.68,373.62Z" fill="#442e74"/><path d="M401.86,262.29h33.77c22.93,0,34.19,12.71,34.19,36.06v14.39c0,23.35-11.26,36.07-34.19,36.07H424.79v59.41H401.86ZM435.63,328c7.3,0,11.26-3.34,11.26-13.76V296.89c0-10.42-4-13.76-11.26-13.76H424.79V328Z" fill="#442e74"/><path d="M474.57,373.62V296.89c0-23.35,12.3-36.69,34.82-36.69s34.82,13.34,34.82,36.69v76.73c0,23.34-12.31,36.69-34.82,36.69S474.57,397,474.57,373.62Zm46.7,1.45V295.43c0-10.42-4.58-14.38-11.88-14.38s-11.89,4-11.89,14.38v79.64c0,10.43,4.59,14.39,11.89,14.39S521.27,385.5,521.27,375.07Z" fill="#442e74"/><path d="M551.56,262.29h34c23.77,0,34,11,34,33.56v9c0,15-4.8,24.6-15,28.77V334c11.46,3.55,15.21,14.39,15.21,30.86V390.5c0,7.09.21,12.3,2.51,17.72H598.89c-1.25-3.75-2.09-6-2.09-17.93V363.61c0-13.55-4-17.93-14.38-17.93h-7.93v62.54H551.56Zm31.27,62.54c8.55,0,13.76-3.75,13.76-15.43V298.14c0-10.42-3.54-15-11.67-15H574.49v41.7Z" fill="#442e74"/><path d="M647.53,283.13h-24V262.29h70.88v20.84h-24V408.22H647.53Z" fill="#442e74"/></g><g id="afdc1d18-ec97-49f2-99a9-c7170b97eaed" data-name="&lt;Layer&gt;"><path d="M206.31,39.25h-41V3.57h121.3V39.25h-41V253.31H206.31Z" fill="#442e74"/><path d="M359.86,204.44H314.55l-6.78,48.87H271.38L312.06,3.57h53.16l40.67,249.74H366.64Zm-5-33.9L337,44.6,319.55,170.54Z" fill="#442e74"/><path d="M469.5,143.43l-16.06,31.39v78.49H414.2V3.57h39.24V111L502.68,3.57h40L495.9,95.26l47.45,158.05h-41Z" fill="#442e74"/><path d="M551.62,3.57h39.25V253.31H551.62Z" fill="#442e74"/><path d="M605,3.57h48.52l39.6,149.49V3.57h35V253.31H688.51L640,71V253.31H605Z" fill="#442e74"/><path d="M740.71,194.09V62.79c0-40,20-62.79,58.51-62.79s58.51,22.83,58.51,62.79V84.2H820.62V60.3c0-17.84-7.84-24.62-20.33-24.62S780,42.46,780,60.3V196.94c0,17.84,7.85,24.26,20.34,24.26s20.33-6.42,20.33-24.26V148.06H801V112.39h56.73v81.7c0,40-20,62.79-58.51,62.79S740.71,234.05,740.71,194.09Z" fill="#442e74"/><path d="M445.44,437.37h-24V416.53h70.88v20.84h-24V562.46H445.44Z" fill="#442e74"/><path d="M496,527.85V451.13c0-23.35,12.3-36.69,34.82-36.69s34.81,13.34,34.81,36.69v76.72c0,23.35-12.3,36.7-34.81,36.7S496,551.2,496,527.85Zm46.7,1.46V449.67c0-10.42-4.59-14.38-11.88-14.38s-11.89,4-11.89,14.38v79.64c0,10.43,4.59,14.39,11.89,14.39S542.68,539.74,542.68,529.31Z" fill="#442e74"/><path d="M597.71,416.53h28.36l23.14,87.35V416.53h20.43V562.46H646.5L618.15,455.93V562.46H597.71Z" fill="#442e74"/><path d="M678,416.53h62.54v20.84H701v38.57h31.48v20.85H701v44.82h39.61v20.85H678Z" fill="#442e74"/><path d="M743.64,416.53h22.1l10.43,114.24,11.05-114.24h25l11,114.24,10.43-114.24h19.8l-14.8,145.93H810.15L799.52,462.18,788.88,562.46H758.45Z" fill="#442e74"/><path d="M29.85,568.14H71.22V675.33H115.6V568.14H157V831.41H115.6V712.94H71.22V831.41H29.85Z" fill="#442e74"/><path d="M172.13,568.14H285v37.61H213.5v69.58h56.79v37.61H213.5V793.8H285v37.61H172.13Z" fill="#442e74"/><path d="M294.88,568.14h41.38V831.41H294.88Z" fill="#442e74"/><path d="M349.45,769V630.58c0-42.13,21.06-66.2,61.68-66.2s61.68,24.07,61.68,66.2v22.56H433.7v-25.2c0-18.8-8.28-26-21.44-26s-21.44,7.15-21.44,26V772c0,18.8,8.28,25.57,21.44,25.57S433.7,790.79,433.7,772V720.46H413V682.85h59.8V769c0,42.12-21.06,66.19-61.68,66.19S349.45,811.1,349.45,769Z" fill="#442e74"/><path d="M485.26,568.14h41.37V675.33H571V568.14h41.37V831.41H571V712.94H526.63V831.41H485.26Z" fill="#442e74"/><path d="M664.55,605.75H621.3V568.14H749.17v37.61H705.92V831.41H664.55Z" fill="#442e74"/><path d="M754.06,769v-15h39.12v18c0,18.8,8.27,25.57,21.43,25.57s21.82-6.77,21.82-26.32c0-21.82-9-35.36-36.11-59-34.6-30.46-46.26-52.28-46.26-82.37,0-41.37,21.44-65.44,61.68-65.44s60.18,24.07,60.18,66.2v10.9H836.8V627.94c0-18.8-7.52-26-20.68-26s-21.06,7.15-21.06,25.2c0,19.18,9.4,32.72,36.48,56.42,34.6,30.46,45.88,51.9,45.88,84.62,0,42.87-21.81,66.94-62.43,66.94S754.06,811.1,754.06,769Z" fill="#442e74"/></g></svg>